<?xml version="1.0" encoding="UTF-8" standalone="no"?>
<!DOCTYPE svg PUBLIC "-//W3C//DTD SVG 1.1//EN"
 "http://www.w3.org/Graphics/SVG/1.1/DTD/svg11.dtd">
<!-- Generated by graphviz version 2.40.1 (20161225.0304)
 -->
<!-- Title: dependencies Pages: 1 -->
<svg width="504pt" height="284pt"
 viewBox="0.00 0.00 504.00 284.00" xmlns="http://www.w3.org/2000/svg" xmlns:xlink="http://www.w3.org/1999/xlink">
<g id="graph0" class="graph" transform="scale(1 1) rotate(0) translate(4 280)">
<title>dependencies</title>
<polygon fill="#ffffff" stroke="transparent" points="-4,4 -4,-280 500,-280 500,4 -4,4"/>
<text text-anchor="start" x="227.0091" y="-42.4" font-family="sans-serif" font-weight="bold" font-size="14.00" fill="#000000">Legend</text>
<polygon fill="#ffffb3" stroke="transparent" points="14,-10 14,-30 34,-30 34,-10 14,-10"/>
<text text-anchor="start" x="37.629" y="-15.4" font-family="sans-serif" font-size="14.00" fill="#000000"> &#160;Declarations</text>
<polygon fill="#8dd3c7" stroke="transparent" points="127,-10 127,-30 147,-30 147,-10 127,-10"/>
<text text-anchor="start" x="150.7251" y="-15.4" font-family="sans-serif" font-size="14.00" fill="#000000"> &#160;Module</text>
<polygon fill="#80b1d3" stroke="transparent" points="213,-10 213,-30 233,-30 233,-10 213,-10"/>
<text text-anchor="start" x="236.7812" y="-15.4" font-family="sans-serif" font-size="14.00" fill="#000000"> &#160;Bootstrap</text>
<polygon fill="#fdb462" stroke="transparent" points="310,-10 310,-30 330,-30 330,-10 310,-10"/>
<text text-anchor="start" x="333.6732" y="-15.4" font-family="sans-serif" font-size="14.00" fill="#000000"> &#160;Providers</text>
<polygon fill="#fb8072" stroke="transparent" points="406,-10 406,-30 426,-30 426,-10 406,-10"/>
<text text-anchor="start" x="429.7258" y="-15.4" font-family="sans-serif" font-size="14.00" fill="#000000"> &#160;Exports</text>
<g id="clust1" class="cluster">
<title>cluster_SkyhookMultiBackendModule</title>
<polygon fill="none" stroke="#000000" stroke-dasharray="1,5" points="17,-70 17,-268 479,-268 479,-70 17,-70"/>
</g>
<g id="clust2" class="cluster">
<title>cluster_SkyhookMultiBackendModule_declarations</title>
<polygon fill="none" stroke="#000000" points="29,-78 29,-130 468,-130 468,-78 29,-78"/>
</g>
<g id="clust6" class="cluster">
<title>cluster_SkyhookMultiBackendModule_exports</title>
<polygon fill="none" stroke="#000000" points="25,-208 25,-260 471,-260 471,-208 25,-208"/>
</g>
<!-- SkyhookPreviewComponent -->
<g id="node1" class="node">
<title>SkyhookPreviewComponent</title>
<polygon fill="#ffffb3" stroke="#000000" points="460.4846,-122 283.5154,-122 283.5154,-86 460.4846,-86 460.4846,-122"/>
<text text-anchor="middle" x="372" y="-99.8" font-family="Times,serif" font-size="14.00" fill="#000000">SkyhookPreviewComponent</text>
</g>
<!-- SkyhookMultiBackendModule -->
<g id="node3" class="node">
<title>SkyhookMultiBackendModule</title>
<polygon fill="#8dd3c7" stroke="#000000" points="246.9297,-187 243.9297,-191 222.9297,-191 219.9297,-187 57.0703,-187 57.0703,-151 246.9297,-151 246.9297,-187"/>
<text text-anchor="middle" x="152" y="-164.8" font-family="Times,serif" font-size="14.00" fill="#000000">SkyhookMultiBackendModule</text>
</g>
<!-- SkyhookPreviewComponent&#45;&gt;SkyhookMultiBackendModule -->
<g id="edge1" class="edge">
<title>SkyhookPreviewComponent&#45;&gt;SkyhookMultiBackendModule</title>
<path fill="none" stroke="#000000" d="M401.4974,-122.0225C401.4974,-139.3734 401.4974,-163 401.4974,-163 401.4974,-163 257.036,-163 257.036,-163"/>
<polygon fill="#000000" stroke="#000000" points="257.0361,-159.5001 247.036,-163 257.036,-166.5001 257.0361,-159.5001"/>
</g>
<!-- SkyhookPreviewRendererComponent -->
<g id="node2" class="node">
<title>SkyhookPreviewRendererComponent</title>
<polygon fill="#ffffb3" stroke="#000000" points="265.2864,-122 36.7136,-122 36.7136,-86 265.2864,-86 265.2864,-122"/>
<text text-anchor="middle" x="151" y="-99.8" font-family="Times,serif" font-size="14.00" fill="#000000">SkyhookPreviewRendererComponent</text>
</g>
<!-- SkyhookPreviewRendererComponent&#45;&gt;SkyhookMultiBackendModule -->
<g id="edge2" class="edge">
<title>SkyhookPreviewRendererComponent&#45;&gt;SkyhookMultiBackendModule</title>
<path fill="none" stroke="#000000" d="M152,-122.1061C152,-122.1061 152,-140.991 152,-140.991"/>
<polygon fill="#000000" stroke="#000000" points="148.5001,-140.9909 152,-150.991 155.5001,-140.991 148.5001,-140.9909"/>
</g>
<!-- SkyhookPreviewComponent  -->
<g id="node4" class="node">
<title>SkyhookPreviewComponent </title>
<polygon fill="#fb8072" stroke="#000000" points="463.4853,-252 282.5147,-252 282.5147,-216 463.4853,-216 463.4853,-252"/>
<text text-anchor="middle" x="373" y="-229.8" font-family="Times,serif" font-size="14.00" fill="#000000">SkyhookPreviewComponent </text>
</g>
<!-- SkyhookMultiBackendModule&#45;&gt;SkyhookPreviewComponent  -->
<g id="edge3" class="edge">
<title>SkyhookMultiBackendModule&#45;&gt;SkyhookPreviewComponent </title>
<path fill="none" stroke="#000000" stroke-dasharray="5,2" d="M246.9722,-175C294.6907,-175 342.5026,-175 342.5026,-175 342.5026,-175 342.5026,-205.9775 342.5026,-205.9775"/>
<polygon fill="#000000" stroke="#000000" points="339.0027,-205.9774 342.5026,-215.9775 346.0027,-205.9775 339.0027,-205.9774"/>
</g>
<!-- SkyhookPreviewRendererComponent  -->
<g id="node5" class="node">
<title>SkyhookPreviewRendererComponent </title>
<polygon fill="#fb8072" stroke="#000000" points="264.7863,-252 33.2137,-252 33.2137,-216 264.7863,-216 264.7863,-252"/>
<text text-anchor="middle" x="149" y="-229.8" font-family="Times,serif" font-size="14.00" fill="#000000">SkyhookPreviewRendererComponent </text>
</g>
<!-- SkyhookMultiBackendModule&#45;&gt;SkyhookPreviewRendererComponent  -->
<g id="edge4" class="edge">
<title>SkyhookMultiBackendModule&#45;&gt;SkyhookPreviewRendererComponent </title>
<path fill="none" stroke="#000000" stroke-dasharray="5,2" d="M152,-187.1061C152,-187.1061 152,-205.991 152,-205.991"/>
<polygon fill="#000000" stroke="#000000" points="148.5001,-205.9909 152,-215.991 155.5001,-205.991 148.5001,-205.9909"/>
</g>
</g>
</svg>
