<?xml version="1.0" encoding="UTF-8" standalone="no"?>
<!DOCTYPE svg PUBLIC "-//W3C//DTD SVG 1.1//EN"
 "http://www.w3.org/Graphics/SVG/1.1/DTD/svg11.dtd">
<!-- Generated by graphviz version 2.40.1 (20161225.0304)
 -->
<!-- Title: dependencies Pages: 1 -->
<svg width="513pt" height="284pt"
 viewBox="0.00 0.00 513.00 284.00" xmlns="http://www.w3.org/2000/svg" xmlns:xlink="http://www.w3.org/1999/xlink">
<g id="graph0" class="graph" transform="scale(1 1) rotate(0) translate(4 280)">
<title>dependencies</title>
<polygon fill="#ffffff" stroke="transparent" points="-4,4 -4,-280 509,-280 509,4 -4,4"/>
<text text-anchor="start" x="231.5091" y="-42.4" font-family="sans-serif" font-weight="bold" font-size="14.00" fill="#000000">Legend</text>
<polygon fill="#ffffb3" stroke="transparent" points="18.5,-10 18.5,-30 38.5,-30 38.5,-10 18.5,-10"/>
<text text-anchor="start" x="42.129" y="-15.4" font-family="sans-serif" font-size="14.00" fill="#000000"> &#160;Declarations</text>
<polygon fill="#8dd3c7" stroke="transparent" points="131.5,-10 131.5,-30 151.5,-30 151.5,-10 131.5,-10"/>
<text text-anchor="start" x="155.2251" y="-15.4" font-family="sans-serif" font-size="14.00" fill="#000000"> &#160;Module</text>
<polygon fill="#80b1d3" stroke="transparent" points="217.5,-10 217.5,-30 237.5,-30 237.5,-10 217.5,-10"/>
<text text-anchor="start" x="241.2812" y="-15.4" font-family="sans-serif" font-size="14.00" fill="#000000"> &#160;Bootstrap</text>
<polygon fill="#fdb462" stroke="transparent" points="314.5,-10 314.5,-30 334.5,-30 334.5,-10 314.5,-10"/>
<text text-anchor="start" x="338.1732" y="-15.4" font-family="sans-serif" font-size="14.00" fill="#000000"> &#160;Providers</text>
<polygon fill="#fb8072" stroke="transparent" points="410.5,-10 410.5,-30 430.5,-30 430.5,-10 410.5,-10"/>
<text text-anchor="start" x="434.2258" y="-15.4" font-family="sans-serif" font-size="14.00" fill="#000000"> &#160;Exports</text>
<g id="clust1" class="cluster">
<title>cluster_SkyhookDndModule</title>
<polygon fill="none" stroke="#000000" stroke-dasharray="1,5" points="8,-70 8,-268 497,-268 497,-70 8,-70"/>
</g>
<g id="clust2" class="cluster">
<title>cluster_SkyhookDndModule_declarations</title>
<polygon fill="none" stroke="#000000" points="21,-78 21,-130 483,-130 483,-78 21,-78"/>
</g>
<g id="clust7" class="cluster">
<title>cluster_SkyhookDndModule_exports</title>
<polygon fill="none" stroke="#000000" points="16,-208 16,-260 489,-260 489,-208 16,-208"/>
</g>
<!-- DragPreviewDirective -->
<g id="node1" class="node">
<title>DragPreviewDirective</title>
<polygon fill="#ffffb3" stroke="#000000" points="474.9342,-122 333.0658,-122 333.0658,-86 474.9342,-86 474.9342,-122"/>
<text text-anchor="middle" x="404" y="-99.8" font-family="Times,serif" font-size="14.00" fill="#000000">DragPreviewDirective</text>
</g>
<!-- SkyhookDndModule -->
<g id="node4" class="node">
<title>SkyhookDndModule</title>
<polygon fill="#8dd3c7" stroke="#000000" points="314.9397,-187 311.9397,-191 290.9397,-191 287.9397,-187 181.0603,-187 181.0603,-151 314.9397,-151 314.9397,-187"/>
<text text-anchor="middle" x="248" y="-164.8" font-family="Times,serif" font-size="14.00" fill="#000000">SkyhookDndModule</text>
</g>
<!-- DragPreviewDirective&#45;&gt;SkyhookDndModule -->
<g id="edge1" class="edge">
<title>DragPreviewDirective&#45;&gt;SkyhookDndModule</title>
<path fill="none" stroke="#000000" d="M428.4057,-122.0225C428.4057,-139.3734 428.4057,-163 428.4057,-163 428.4057,-163 324.9201,-163 324.9201,-163"/>
<polygon fill="#000000" stroke="#000000" points="324.9201,-159.5001 314.9201,-163 324.92,-166.5001 324.9201,-159.5001"/>
</g>
<!-- DragSourceDirective -->
<g id="node2" class="node">
<title>DragSourceDirective</title>
<polygon fill="#ffffb3" stroke="#000000" points="315.437,-122 180.563,-122 180.563,-86 315.437,-86 315.437,-122"/>
<text text-anchor="middle" x="248" y="-99.8" font-family="Times,serif" font-size="14.00" fill="#000000">DragSourceDirective</text>
</g>
<!-- DragSourceDirective&#45;&gt;SkyhookDndModule -->
<g id="edge2" class="edge">
<title>DragSourceDirective&#45;&gt;SkyhookDndModule</title>
<path fill="none" stroke="#000000" d="M248,-122.1061C248,-122.1061 248,-140.991 248,-140.991"/>
<polygon fill="#000000" stroke="#000000" points="244.5001,-140.9909 248,-150.991 251.5001,-140.991 244.5001,-140.9909"/>
</g>
<!-- DropTargetDirective -->
<g id="node3" class="node">
<title>DropTargetDirective</title>
<polygon fill="#ffffb3" stroke="#000000" points="162.8836,-122 29.1164,-122 29.1164,-86 162.8836,-86 162.8836,-122"/>
<text text-anchor="middle" x="96" y="-99.8" font-family="Times,serif" font-size="14.00" fill="#000000">DropTargetDirective</text>
</g>
<!-- DropTargetDirective&#45;&gt;SkyhookDndModule -->
<g id="edge3" class="edge">
<title>DropTargetDirective&#45;&gt;SkyhookDndModule</title>
<path fill="none" stroke="#000000" d="M116.7305,-122.0225C116.7305,-139.3734 116.7305,-163 116.7305,-163 116.7305,-163 171.2116,-163 171.2116,-163"/>
<polygon fill="#000000" stroke="#000000" points="171.2116,-166.5001 181.2116,-163 171.2115,-159.5001 171.2116,-166.5001"/>
</g>
<!-- DragPreviewDirective  -->
<g id="node5" class="node">
<title>DragPreviewDirective </title>
<polygon fill="#fb8072" stroke="#000000" points="480.9349,-252 335.0651,-252 335.0651,-216 480.9349,-216 480.9349,-252"/>
<text text-anchor="middle" x="408" y="-229.8" font-family="Times,serif" font-size="14.00" fill="#000000">DragPreviewDirective </text>
</g>
<!-- SkyhookDndModule&#45;&gt;DragPreviewDirective  -->
<g id="edge4" class="edge">
<title>SkyhookDndModule&#45;&gt;DragPreviewDirective </title>
<path fill="none" stroke="#000000" stroke-dasharray="5,2" d="M314.9222,-175C348.3832,-175 381.8443,-175 381.8443,-175 381.8443,-175 381.8443,-205.9775 381.8443,-205.9775"/>
<polygon fill="#000000" stroke="#000000" points="378.3444,-205.9774 381.8443,-215.9775 385.3444,-205.9775 378.3444,-205.9774"/>
</g>
<!-- DragSourceDirective  -->
<g id="node6" class="node">
<title>DragSourceDirective </title>
<polygon fill="#fb8072" stroke="#000000" points="317.4377,-252 178.5623,-252 178.5623,-216 317.4377,-216 317.4377,-252"/>
<text text-anchor="middle" x="248" y="-229.8" font-family="Times,serif" font-size="14.00" fill="#000000">DragSourceDirective </text>
</g>
<!-- SkyhookDndModule&#45;&gt;DragSourceDirective  -->
<g id="edge5" class="edge">
<title>SkyhookDndModule&#45;&gt;DragSourceDirective </title>
<path fill="none" stroke="#000000" stroke-dasharray="5,2" d="M248,-187.1061C248,-187.1061 248,-205.991 248,-205.991"/>
<polygon fill="#000000" stroke="#000000" points="244.5001,-205.9909 248,-215.991 251.5001,-205.991 244.5001,-205.9909"/>
</g>
<!-- DropTargetDirective  -->
<g id="node7" class="node">
<title>DropTargetDirective </title>
<polygon fill="#fb8072" stroke="#000000" points="160.383,-252 23.617,-252 23.617,-216 160.383,-216 160.383,-252"/>
<text text-anchor="middle" x="92" y="-229.8" font-family="Times,serif" font-size="14.00" fill="#000000">DropTargetDirective </text>
</g>
<!-- SkyhookDndModule&#45;&gt;DropTargetDirective  -->
<g id="edge6" class="edge">
<title>SkyhookDndModule&#45;&gt;DropTargetDirective </title>
<path fill="none" stroke="#000000" stroke-dasharray="5,2" d="M180.8484,-175C131.503,-175 73.0195,-175 73.0195,-175 73.0195,-175 73.0195,-205.9775 73.0195,-205.9775"/>
<polygon fill="#000000" stroke="#000000" points="69.5196,-205.9774 73.0195,-215.9775 76.5196,-205.9775 69.5196,-205.9774"/>
</g>
</g>
</svg>
